#!OML:ASF H:\Terrain\Patient Classification 1\Walking\liu\liu.ASF
:FULLY-SPECIFIED
:DEGREES
145
root 8.28394 16.709 -13.8611 7.11726 -1.40995 -3.94604
lowerback -2.63427 0.44477 1.18733
upperback -1.09676 0.545153 3.40829
thorax 0.329891 0.276344 2.84876
lowerneck -21.8398 -4.69241 -12.7479
upperneck 20.6466 -5.28854 11.8014
head 10.9543 -2.01538 5.62083
rclavicle -6.85807e-015 3.97569e-015
rhumerus -32.9328 19.5755 -86.7987
rradius 45.428
rwrist -23.8949
rhand -32.5175 -29.4519
rfingers 7.12502
rthumb -5.74841 -59.3539
lclavicle -6.85807e-015 3.97569e-015
lhumerus -42.549 -9.35223 93.2893
lradius 24.4692
lwrist 2.03992
lhand -5.1104 -21.2841
lfingers 7.12502
lthumb 20.6873 7.63335
rfemur -9.16359 4.02736 30.1431
rtibia 25.9388
rfoot -14.0228 6.18404
rtoes -12.2552
lfemur -36.8001 9.25958 -17.8988
ltibia 55.8781
lfoot -15.1994 10.6362
ltoes -11.2457
146
root 8.29476 16.7031 -13.6981 7.20263 -1.70067 -4.12347
lowerback -2.82615 0.611848 1.38965
upperback -0.967132 0.750765 3.48169
thorax 0.563468 0.378114 2.82015
lowerneck -21.9113 -4.7518 -13.0323
upperneck 20.6807 -5.32041 12.0003
head 11.0004 -2.02771 5.74284
rclavicle 4.57205e-015 0
rhumerus -32.0938 20.0257 -86.4417
rradius 46.1389
rwrist -23.9751
rhand -32.4179 -29.1344
rfingers 7.12502
rthumb -5.65219 -59.039
lclavicle 4.57205e-015 0
lhumerus -43.3027 -9.35231 93.3141
lradius 24.4414
lwrist 1.85471
lhand -5.19317 -20.957
lfingers 7.12502
lthumb 20.6078 7.96902
rfemur -8.26429 3.7825 30.3132
rtibia 25.1523
rfoot -13.6125 6.39056
rtoes -12.3826
lfemur -37.478 9.24831 -17.8981
ltibia 53.4824
lfoot -14.4043 10.7779
ltoes -12.0768
147
root 8.30852 16.7077 -13.5308 7.27016 -2.01209 -4.33681
lowerback -2.89321 0.773023 1.70852
upperback -0.856217 0.949637 3.49656
thorax 0.712014 0.477032 2.66487
lowerneck -21.9903 -4.7862 -13.1424
upperneck 20.6026 -5.35069 12.1387
head 10.9991 -2.03123 5.80746
rclavicle 8.19987e-015 -1.90833e-014
rhumerus -31.4769 20.6308 -86.2815
rradius 47.1343
rwrist -24.4162
rhand -32.806 -28.8329
rfingers 7.12502
rthumb -6.02694 -58.7272
lclavicle 8.19987e-015 -1.90833e-014
lhumerus -44.0261 -9.6613 93.4765
lradius 24.232
lwrist 2.14701
lhand -5.41676 -20.9178
lfingers 7.12502
lthumb 20.3929 8.03141
rfemur -7.37588 3.76078 30.4703
rtibia 24.4564
rfoot -13.1878 6.54183
rtoes -11.9556
lfemur -37.9925 9.11835 -17.8024
ltibia 50.8664
lfoot -14.048 10.9865
ltoes -11.6343
148
root 8.32217 16.7151 -13.3589 7.44515 -2.20359 -4.50063
lowerback -3.03287 0.844925 1.89916
upperback -0.828361 1.03263 3.5175
thorax 0.818977 0.518564 2.5851
lowerneck -22.1758 -4.77771 -13.0024
upperneck 20.611 -5.35028 12.0873
head 11.0312 -2.02023 5.76463
rclavicle -1.28713e-014 5.56597e-015
rhumerus -30.8362 21.341 -86.2577
rradius 47.9634
rwrist -25.0745
rhand -33.6085 -29.2731
rfingers 7.12502
rthumb -6.80161 -59.1438
lclavicle -1.28713e-014 5.56597e-015
lhumerus -44.5193 -9.29287 93.1641
lradius 23.6188
lwrist 1.59261
lhand -6.29673 -22.0361
lfingers 7.12502
lthumb 19.5471 7.00124
rfemur -6.57776 4.03136 30.5711
rtibia 23.7689
rfoot -12.9429 6.4133
rtoes -11.252
lfemur -38.4445 8.71067 -17.6566
ltibia 48.0067
lfoot -14.0644 11.1302
ltoes -12.7906
149
root 8.33348 16.7153 -13.1916 7.61058 -2.31434 -4.39335
lowerback -3.09297 0.950092 1.77203
upperback -0.920533 1.17821 3.52063
thorax 0.750848 0.591564 2.6651
lowerneck -21.793 -4.8335 -13.3227
upperneck 20.3554 -5.40416 12.304
head 10.8904 -2.05496 5.88272
rclavicle 4.77083e-015 5.56597e-015
rhumerus -30.2822 21.6953 -86.0164
rradius 48.5406
rwrist -25.3767
rhand -33.9808 -29.9833
rfingers 7.12502
rthumb -7.16105 -59.8421
lclavicle 4.77083e-015 5.56597e-015
lhumerus -45.2193 -8.641 92.7493
lradius 23.1755
lwrist 0.32309
lhand -9.34542 -23.8643
lfingers 7.12502
lthumb 16.6139 5.44458
rfemur -5.70068 4.13604 30.3814
rtibia 22.9114
rfoot -12.9882 6.44783
rtoes -12.447
lfemur -38.7321 8.28825 -17.7959
ltibia 44.9634
lfoot -13.5986 11.0599
ltoes -13.9191
150
root 8.34897 16.7269 -13.0203 7.50375 -2.57898 -4.305
lowerback -2.95551 1.07854 1.7317
upperback -0.865338 1.35431 3.50637
thorax 0.724097 0.679571 2.67707
lowerneck -21.6633 -4.87543 -13.5735
upperneck 20.1845 -5.43833 12.5256
head 10.824 -2.06763 5.99841
rclavicle 7.90169e-015 -2.06736e-014
rhumerus -29.6465 22.0466 -85.736
rradius 49.1578
rwrist -25.4804
rhand -34.1684 -31.1141
rfingers 7.12502
rthumb -7.3421 -60.9667
lclavicle 7.90169e-015 -2.06736e-014
lhumerus -46.1182 -8.33539 92.597
lradius 23.0044
lwrist -0.116071
lhand -7.07449 -23.1037
lfingers 7.12502
lthumb 18.7992 6.00787
rfemur -4.41592 4.09678 30.1664
rtibia 21.9
rfoot -12.9079 6.76617
rtoes -13.4923
lfemur -38.6769 7.95897 -17.8596
ltibia 41.9024
lfoot -12.9585 11.0191
ltoes -13.3607
151
root 8.36517 16.7359 -12.8487 7.41577 -2.82059 -4.56058
lowerback -2.83607 1.15804 2.06748
upperback -0.811045 1.45278 3.54894
thorax 0.71682 0.728705 2.53395
lowerneck -21.8383 -4.86125 -13.4407
upperneck 20.3255 -5.41711 12.3913
head 10.8966 -2.05857 5.93361
rclavicle 1.59028e-015 -1.66979e-014
rhumerus -28.8904 22.2033 -85.4289
rradius 49.4238
rwrist -24.4925
rhand -32.9562 -30.5613
rfingers 7.12502
rthumb -6.17197 -60.4514
lclavicle 1.59028e-015 -1.66979e-014
lhumerus -46.9416 -7.48474 91.9512
lradius 22.7565
lwrist -1.18867
lhand -8.06051 -24.3246
lfingers 7.12502
lthumb 17.8506 4.8761
rfemur -3.08565 4.09316 30.3471
rtibia 20.7304
rfoot -12.3122 6.91497
rtoes -12.8237
lfemur -38.7278 7.67692 -17.5316
ltibia 38.9595
lfoot -12.6547 11.1618
ltoes -13.5318
152
root 8.37653 16.736 -12.6811 7.58341 -2.99024 -4.98585
lowerback -2.89527 1.27904 2.5111
upperback -0.856797 1.59949 3.64331
thorax 0.708079 0.802081 2.38854
lowerneck -21.5521 -4.89687 -13.3858
upperneck 20.1574 -5.46932 12.2338
head 10.7821 -2.10374 5.84689
rclavicle -6.95746e-015 -2.06736e-014
rhumerus -28.3162 22.4895 -85.193
rradius 49.952
rwrist -24.2433
rhand -32.3097 -30.0099
rfingers 7.12502
rthumb -5.54775 -59.9173
lclavicle -6.95746e-015 -2.06736e-014
lhumerus -47.6331 -6.46539 91.0429
lradius 22.5431
lwrist -2.68827
lhand -9.27455 -25.6427
lfingers 7.12502
lthumb 16.6821 3.66048
rfemur -1.96053 4.0313 30.6974
rtibia 19.3553
rfoot -11.4158 7.13087
rtoes -11.5598
lfemur -39.0972 7.49446 -17.0485
ltibia 36.1605
lfoot -12.4787 11.0704
ltoes -13.9531
153
root 8.38774 16.7378 -12.5094 7.85133 -3.19874 -5.43145
lowerback -3.08855 1.39578 2.8957
upperback -0.908549 1.73404 3.80628
thorax 0.76621 0.869543 2.35083
lowerneck -21.3347 -4.87931 -13.4664
upperneck 19.9886 -5.4318 12.2327
head 10.6765 -2.09845 5.85907
rclavicle -1.53064e-014 -7.95139e-016
rhumerus -27.7598 23.0981 -84.9112
rradius 50.5278
rwrist -24.4967
rhand -32.0242 -29.23
rfingers 7.12502
rthumb -5.27205 -59.1444
lclavicle -1.53064e-014 -7.95139e-016
lhumerus -48.3414 -5.78939 90.554
lradius 22.3497
lwrist -3.39159
lhand -8.57025 -24.8213
lfingers 7.12502
lthumb 17.3601 4.42345
rfemur -0.850507 4.13379 31.0312
rtibia 17.9183
rfoot -10.6279 7.31194
rtoes -11.6085
lfemur -39.5341 7.15824 -16.425
ltibia 33.5128
lfoot -12.5166 10.7077
ltoes -12.8767
